<?xml version="1.0" encoding="UTF-8"?>
<svg xmlns="http://www.w3.org/2000/svg" viewBox="0 0 607 591" width="607" height="591" role="img" aria-label="ARTA Machining vector">
<g fill-rule="evenodd">
  <path d="M 73.00,137.00 L 60.00,158.00 L 66.00,190.00 L 35.00,212.00 L 31.00,232.00 L 44.00,262.00 L 21.00,281.00 L 20.00,301.00 L 42.00,328.00 L 42.00,344.00 L 26.00,361.00 L 34.00,388.00 L 63.00,407.00 L 54.00,436.00 L 68.00,461.00 L 93.00,460.00 L 106.00,472.00 L 130.00,452.00 L 97.00,399.00 L 77.00,324.00 L 85.00,240.00 L 130.00,156.00 L 172.00,117.00 L 225.00,92.00 L 226.00,132.00 L 372.00,132.00 L 375.00,88.00 L 454.00,133.00 L 489.00,172.00 L 517.00,225.00 L 529.00,331.00 L 515.00,387.00 L 486.00,439.00 L 492.00,448.00 L 527.00,387.00 L 541.00,323.00 L 532.00,236.00 L 493.00,156.00 L 525.00,198.00 L 545.00,261.00 L 547.00,332.00 L 531.00,396.00 L 498.00,454.00 L 506.00,465.00 L 538.00,460.00 L 552.00,436.00 L 544.00,405.00 L 571.00,390.00 L 580.00,360.00 L 564.00,332.00 L 586.00,311.00 L 586.00,281.00 L 563.00,262.00 L 577.00,229.00 L 569.00,205.00 L 540.00,188.00 L 544.00,152.00 L 531.00,134.00 L 498.00,125.00 L 498.00,96.00 L 478.00,78.00 L 448.00,83.00 L 430.00,48.00 L 407.00,39.00 L 377.00,50.00 L 358.00,24.00 L 330.00,20.00 L 317.00,36.00 L 297.00,39.00 L 277.00,20.00 L 249.00,24.00 L 231.00,50.00 L 200.00,39.00 L 176.00,49.00 L 167.00,78.00 L 128.00,79.00 L 109.00,95.00 L 110.00,125.00 Z M 262.00,187.00 L 261.00,253.00 L 268.00,257.00 L 280.00,259.00 L 279.00,282.00 L 285.00,283.00 L 287.00,285.00 L 287.00,318.00 L 285.00,325.00 L 289.00,343.00 L 286.00,349.00 L 286.00,358.00 L 290.00,365.00 L 296.00,364.00 L 297.00,369.00 L 302.00,373.00 L 306.00,373.00 L 310.00,369.00 L 317.00,353.00 L 317.00,344.00 L 315.00,340.00 L 311.00,339.00 L 311.00,333.00 L 316.00,323.00 L 316.00,310.00 L 313.00,308.00 L 313.00,304.00 L 316.00,299.00 L 316.00,285.00 L 323.00,281.00 L 323.00,265.00 L 320.00,262.00 L 320.00,258.00 L 335.00,256.00 L 340.00,251.00 L 340.00,188.00 Z M 243.00,139.00 L 246.00,143.00 L 246.00,168.00 L 248.00,171.00 L 257.00,171.00 L 259.00,173.00 L 259.00,178.00 L 262.00,181.00 L 339.00,181.00 L 342.00,179.00 L 343.00,172.00 L 345.00,170.00 L 353.00,169.00 L 354.00,167.00 L 354.00,143.00 L 357.00,140.00 L 356.00,138.00 Z M 247.00,393.00 L 246.00,476.00 L 264.00,476.00 L 264.00,450.00 L 266.00,448.00 L 275.00,448.00 L 278.00,451.00 L 294.00,477.00 L 312.00,476.00 L 295.00,449.00 L 295.00,445.00 L 306.00,436.00 L 309.00,428.00 L 309.00,414.00 L 304.00,404.00 L 299.00,399.00 L 287.00,394.00 Z M 185.00,393.00 L 181.00,400.00 L 154.00,476.00 L 169.00,477.00 L 172.00,473.00 L 175.00,462.00 L 177.00,460.00 L 209.00,460.00 L 211.00,462.00 L 216.00,477.00 L 234.00,477.00 L 204.00,395.00 L 202.00,393.00 Z M 416.00,393.00 L 404.00,422.00 L 385.00,477.00 L 400.00,477.00 L 403.00,473.00 L 405.00,464.00 L 408.00,460.00 L 440.00,460.00 L 443.00,464.00 L 444.00,470.00 L 448.00,477.00 L 464.00,477.00 L 465.00,476.00 L 462.00,466.00 L 434.00,394.00 Z M 31.00,511.00 L 30.00,568.00 L 42.00,568.00 L 43.00,540.00 L 47.00,540.00 L 54.00,552.00 L 57.00,555.00 L 61.00,555.00 L 70.00,540.00 L 75.00,539.00 L 76.00,568.00 L 88.00,569.00 L 89.00,512.00 L 74.00,512.00 L 62.00,534.00 L 57.00,535.00 L 43.00,511.00 Z M 321.00,393.00 L 321.00,408.00 L 345.00,409.00 L 345.00,474.00 L 346.00,477.00 L 361.00,477.00 L 362.00,410.00 L 364.00,408.00 L 386.00,408.00 L 387.00,394.00 Z M 341.00,511.00 L 340.00,568.00 L 352.00,568.00 L 352.00,540.00 L 357.00,539.00 L 380.00,569.00 L 390.00,569.00 L 391.00,512.00 L 379.00,511.00 L 379.00,535.00 L 377.00,540.00 L 373.00,540.00 L 351.00,511.00 Z M 444.00,511.00 L 444.00,568.00 L 456.00,568.00 L 456.00,540.00 L 461.00,539.00 L 483.00,568.00 L 494.00,569.00 L 495.00,512.00 L 484.00,511.00 L 483.00,540.00 L 478.00,541.00 L 455.00,511.00 Z M 115.00,152.00 L 116.00,157.00 L 112.00,159.00 L 111.00,164.00 L 107.00,166.00 L 107.00,169.00 L 105.00,170.00 L 103.00,175.00 L 100.00,176.00 L 100.00,180.00 L 97.00,181.00 L 97.00,186.00 L 93.00,191.00 L 81.00,217.00 L 72.00,246.00 L 67.00,274.00 L 67.00,333.00 L 76.00,375.00 L 90.00,408.00 L 90.00,412.00 L 85.00,413.00 L 71.00,382.00 L 62.00,346.00 L 59.00,321.00 L 60.00,274.00 L 66.00,242.00 L 81.00,200.00 L 91.00,181.00 L 94.00,180.00 L 94.00,176.00 L 97.00,175.00 L 97.00,171.00 L 99.00,170.00 L 101.00,165.00 L 104.00,164.00 L 104.00,161.00 L 107.00,157.00 L 109.00,157.00 L 109.00,154.00 L 111.00,152.00 Z M 525.00,514.00 L 519.00,519.00 L 512.00,533.00 L 512.00,546.00 L 518.00,559.00 L 528.00,567.00 L 539.00,570.00 L 553.00,569.00 L 562.00,565.00 L 566.00,561.00 L 565.00,539.00 L 546.00,539.00 L 545.00,547.00 L 552.00,548.00 L 554.00,550.00 L 554.00,555.00 L 550.00,558.00 L 538.00,558.00 L 528.00,551.00 L 525.00,543.00 L 525.00,537.00 L 528.00,529.00 L 536.00,522.00 L 545.00,521.00 L 551.00,523.00 L 557.00,528.00 L 566.00,520.00 L 558.00,513.00 L 549.00,510.00 L 535.00,510.00 Z M 127.00,511.00 L 124.00,515.00 L 105.00,568.00 L 116.00,569.00 L 122.00,557.00 L 143.00,557.00 L 149.00,569.00 L 160.00,569.00 L 159.00,562.00 L 140.00,512.00 Z M 239.00,511.00 L 239.00,568.00 L 251.00,568.00 L 251.00,547.00 L 253.00,545.00 L 273.00,545.00 L 275.00,547.00 L 275.00,568.00 L 286.00,569.00 L 287.00,511.00 L 275.00,511.00 L 275.00,530.00 L 272.00,533.00 L 253.00,533.00 L 251.00,531.00 L 251.00,512.00 Z M 188.00,511.00 L 182.00,514.00 L 174.00,522.00 L 171.00,528.00 L 169.00,536.00 L 171.00,551.00 L 175.00,558.00 L 185.00,567.00 L 196.00,570.00 L 210.00,568.00 L 217.00,564.00 L 222.00,558.00 L 222.00,556.00 L 213.00,551.00 L 202.00,558.00 L 195.00,558.00 L 190.00,556.00 L 183.00,547.00 L 183.00,533.00 L 185.00,529.00 L 191.00,523.00 L 194.00,522.00 L 204.00,522.00 L 211.00,527.00 L 215.00,527.00 L 222.00,522.00 L 216.00,515.00 L 206.00,510.00 Z M 401.00,78.00 L 401.00,82.00 L 396.00,83.00 L 383.00,77.00 L 352.00,68.00 L 324.00,64.00 L 293.00,64.00 L 263.00,67.00 L 236.00,73.00 L 214.00,81.00 L 210.00,84.00 L 205.00,84.00 L 204.00,86.00 L 195.00,91.00 L 190.00,90.00 L 190.00,86.00 L 200.00,80.00 L 204.00,80.00 L 205.00,78.00 L 218.00,72.00 L 239.00,65.00 L 244.00,65.00 L 263.00,60.00 L 299.00,57.00 L 331.00,58.00 L 355.00,62.00 L 374.00,68.00 L 379.00,68.00 Z M 256.00,80.00 L 265.00,78.00 L 275.00,79.00 L 275.00,124.00 L 273.00,126.00 L 256.00,126.00 L 254.00,124.00 L 254.00,82.00 Z M 307.00,511.00 L 307.00,568.00 L 319.00,569.00 L 320.00,511.00 Z M 412.00,511.00 L 411.00,568.00 L 423.00,569.00 L 424.00,512.00 Z M 266.00,407.00 L 281.00,407.00 L 289.00,412.00 L 291.00,415.00 L 292.00,423.00 L 290.00,428.00 L 286.00,432.00 L 282.00,434.00 L 266.00,434.00 L 264.00,432.00 L 264.00,409.00 Z M 275.00,193.00 L 283.00,193.00 L 285.00,195.00 L 285.00,247.00 L 283.00,249.00 L 275.00,249.00 L 273.00,247.00 L 273.00,195.00 Z M 191.00,419.00 L 196.00,420.00 L 203.00,440.00 L 202.00,446.00 L 182.00,445.00 L 182.00,441.00 L 184.00,439.00 Z M 422.00,419.00 L 427.00,420.00 L 434.00,439.00 L 433.00,446.00 L 414.00,445.00 L 414.00,440.00 Z M 341.00,79.00 L 346.00,79.00 L 348.00,81.00 L 348.00,124.00 L 346.00,126.00 L 342.00,126.00 L 340.00,124.00 Z M 402.00,81.00 L 408.00,80.00 L 415.00,84.00 L 417.00,87.00 L 420.00,87.00 L 428.00,91.00 L 430.00,94.00 L 434.00,95.00 L 439.00,100.00 L 444.00,102.00 L 445.00,105.00 L 448.00,105.00 L 450.00,107.00 L 450.00,111.00 L 445.00,112.00 L 443.00,108.00 L 440.00,108.00 L 427.00,98.00 L 403.00,86.00 Z M 282.00,77.00 L 288.00,78.00 L 287.00,125.00 L 281.00,124.00 Z M 89.00,415.00 L 94.00,416.00 L 98.00,426.00 L 100.00,427.00 L 100.00,431.00 L 103.00,432.00 L 107.00,440.00 L 112.00,445.00 L 112.00,447.00 L 117.00,451.00 L 117.00,458.00 L 113.00,458.00 L 108.00,450.00 L 101.00,442.00 L 101.00,440.00 L 98.00,438.00 L 97.00,432.00 L 94.00,431.00 L 88.00,420.00 Z M 292.00,194.00 L 297.00,195.00 L 296.00,248.00 L 291.00,247.00 Z M 269.00,144.00 L 282.00,144.00 L 284.00,146.00 L 284.00,161.00 L 282.00,163.00 L 267.00,162.00 L 267.00,146.00 Z M 233.00,86.00 L 239.00,87.00 L 239.00,124.00 L 237.00,126.00 L 233.00,126.00 L 231.00,124.00 Z M 130.00,532.00 L 136.00,533.00 L 139.00,542.00 L 139.00,546.00 L 137.00,548.00 L 126.00,547.00 L 126.00,542.00 Z M 294.00,280.00 L 300.00,281.00 L 300.00,298.00 L 298.00,300.00 L 293.00,299.00 Z M 190.00,89.00 L 190.00,93.00 L 186.00,96.00 L 180.00,98.00 L 177.00,101.00 L 172.00,100.00 L 172.00,96.00 L 177.00,94.00 L 179.00,91.00 L 184.00,90.00 L 185.00,88.00 Z M 329.00,144.00 L 334.00,145.00 L 333.00,162.00 L 328.00,161.00 Z M 138.00,127.00 L 139.00,132.00 L 135.00,133.00 L 133.00,137.00 L 129.00,137.00 L 128.00,132.00 L 130.00,130.00 L 133.00,130.00 L 134.00,127.00 Z M 168.00,101.00 L 169.00,106.00 L 167.00,108.00 L 164.00,108.00 L 163.00,111.00 L 159.00,111.00 L 158.00,106.00 L 162.00,105.00 L 164.00,101.00 Z M 479.00,139.00 L 484.00,138.00 L 487.00,141.00 L 487.00,145.00 L 482.00,146.00 L 479.00,143.00 Z M 459.00,120.00 L 465.00,119.00 L 467.00,121.00 L 467.00,125.00 L 461.00,126.00 L 459.00,124.00 Z M 281.00,259.00 L 288.00,258.00 L 289.00,263.00 L 282.00,264.00 Z M 143.00,118.00 L 148.00,117.00 L 149.00,122.00 L 144.00,123.00 Z M 453.00,114.00 L 458.00,113.00 L 459.00,118.00 L 454.00,119.00 Z" fill="#03446E" />
</g>
</svg>
