<?xml version="1.0" encoding="UTF-8"?>
<svg xmlns="http://www.w3.org/2000/svg" viewBox="0 0 622 478" width="622" height="478" role="img" aria-label="ARTA MACHINING mark vectorized">
  <g fill="#004471" fill-rule="evenodd">
    <path d="M 109.00,158.00 L 148.00,159.00 L 164.00,140.00 L 193.00,114.00 L 244.00,87.00 L 283.00,77.00 L 323.00,75.00 L 364.00,81.00 L 406.00,97.00 L 450.00,128.00 L 479.00,161.00 L 515.00,160.00 L 501.00,138.00 L 502.00,123.00 L 510.00,111.00 L 481.00,83.00 L 463.00,93.00 L 449.00,92.00 L 442.00,88.00 L 431.00,74.00 L 432.00,48.00 L 394.00,34.00 L 379.00,50.00 L 367.00,54.00 L 356.00,53.00 L 339.00,41.00 L 332.00,21.00 L 321.00,20.00 L 291.00,21.00 L 286.00,39.00 L 268.00,53.00 L 248.00,52.00 L 236.00,44.00 L 228.00,34.00 L 191.00,48.00 L 193.00,72.00 L 182.00,87.00 L 171.00,92.00 L 160.00,92.00 L 142.00,84.00 L 120.00,105.00 L 116.00,112.00 L 123.00,125.00 L 123.00,139.00 Z M 192.00,198.00 L 192.00,348.00 L 226.00,348.00 L 226.00,298.00 L 228.00,296.00 L 249.00,296.00 L 285.00,349.00 L 322.00,348.00 L 290.00,295.00 L 290.00,291.00 L 307.00,278.00 L 317.00,258.00 L 318.00,239.00 L 315.00,228.00 L 307.00,215.00 L 295.00,205.00 L 277.00,199.00 Z M 502.00,197.00 L 493.00,217.00 L 488.00,234.00 L 465.00,293.00 L 446.00,348.00 L 482.00,349.00 L 490.00,327.00 L 495.00,319.00 L 555.00,319.00 L 558.00,323.00 L 560.00,332.00 L 567.00,349.00 L 600.00,349.00 L 601.00,348.00 L 599.00,341.00 L 596.00,337.00 L 596.00,333.00 L 590.00,317.00 L 588.00,315.00 L 582.00,295.00 L 579.00,290.00 L 545.00,198.00 Z M 76.00,197.00 L 64.00,224.00 L 53.00,258.00 L 46.00,273.00 L 20.00,348.00 L 56.00,349.00 L 62.00,331.00 L 68.00,319.00 L 127.00,319.00 L 130.00,323.00 L 136.00,344.00 L 139.00,349.00 L 173.00,349.00 L 173.00,345.00 L 118.00,198.00 Z M 331.00,198.00 L 330.00,199.00 L 330.00,224.00 L 332.00,226.00 L 375.00,226.00 L 377.00,228.00 L 377.00,348.00 L 378.00,349.00 L 410.00,349.00 L 409.00,346.00 L 409.00,315.00 L 410.00,314.00 L 409.00,231.00 L 412.00,226.00 L 456.00,226.00 L 457.00,225.00 L 456.00,199.00 L 455.00,198.00 Z M 26.00,398.00 L 26.00,454.00 L 27.00,455.00 L 38.00,455.00 L 39.00,454.00 L 39.00,431.00 L 40.00,430.00 L 45.00,431.00 L 57.00,452.00 L 59.00,452.00 L 61.00,450.00 L 70.00,435.00 L 72.00,433.00 L 76.00,433.00 L 77.00,434.00 L 77.00,455.00 L 90.00,455.00 L 89.00,452.00 L 89.00,445.00 L 90.00,444.00 L 90.00,427.00 L 89.00,426.00 L 90.00,398.00 L 74.00,398.00 L 74.00,400.00 L 69.00,407.00 L 68.00,411.00 L 61.00,423.00 L 57.00,423.00 L 55.00,421.00 L 46.00,404.00 L 41.00,398.00 Z M 226.00,228.00 L 228.00,226.00 L 263.00,226.00 L 264.00,227.00 L 269.00,227.00 L 275.00,230.00 L 281.00,236.00 L 283.00,241.00 L 283.00,253.00 L 278.00,260.00 L 273.00,264.00 L 268.00,266.00 L 258.00,267.00 L 257.00,268.00 L 228.00,268.00 L 226.00,266.00 Z M 469.00,398.00 L 468.00,399.00 L 468.00,418.00 L 469.00,419.00 L 468.00,454.00 L 469.00,455.00 L 482.00,455.00 L 483.00,454.00 L 482.00,430.00 L 487.00,429.00 L 509.00,455.00 L 521.00,455.00 L 521.00,399.00 L 520.00,398.00 L 510.00,398.00 L 508.00,400.00 L 508.00,425.00 L 503.00,426.00 L 481.00,398.00 Z M 361.00,398.00 L 360.00,399.00 L 360.00,454.00 L 361.00,455.00 L 373.00,455.00 L 374.00,454.00 L 373.00,429.00 L 378.00,428.00 L 401.00,455.00 L 411.00,455.00 L 413.00,450.00 L 413.00,399.00 L 412.00,398.00 L 400.00,398.00 L 400.00,426.00 L 395.00,427.00 L 373.00,398.00 Z M 554.00,400.00 L 544.00,409.00 L 541.00,415.00 L 539.00,430.00 L 543.00,442.00 L 548.00,448.00 L 559.00,455.00 L 573.00,457.00 L 585.00,454.00 L 596.00,445.00 L 596.00,424.00 L 595.00,423.00 L 572.00,423.00 L 571.00,424.00 L 571.00,434.00 L 581.00,436.00 L 581.00,440.00 L 575.00,444.00 L 565.00,444.00 L 560.00,441.00 L 554.00,434.00 L 552.00,429.00 L 552.00,425.00 L 556.00,416.00 L 564.00,410.00 L 577.00,410.00 L 587.00,417.00 L 595.00,412.00 L 596.00,410.00 L 595.00,407.00 L 587.00,400.00 L 579.00,397.00 L 562.00,397.00 Z M 129.00,397.00 L 120.00,417.00 L 114.00,434.00 L 112.00,436.00 L 111.00,441.00 L 107.00,448.00 L 105.00,455.00 L 119.00,455.00 L 121.00,452.00 L 122.00,447.00 L 125.00,444.00 L 146.00,444.00 L 152.00,455.00 L 167.00,454.00 L 144.00,399.00 L 142.00,397.00 Z M 251.00,398.00 L 250.00,399.00 L 250.00,454.00 L 251.00,455.00 L 263.00,455.00 L 264.00,454.00 L 264.00,433.00 L 266.00,431.00 L 289.00,431.00 L 291.00,433.00 L 291.00,454.00 L 304.00,455.00 L 304.00,399.00 L 300.00,398.00 L 292.00,398.00 L 291.00,399.00 L 291.00,418.00 L 289.00,420.00 L 266.00,420.00 L 264.00,418.00 L 264.00,399.00 L 263.00,398.00 Z M 193.00,399.00 L 188.00,402.00 L 180.00,410.00 L 176.00,419.00 L 176.00,434.00 L 180.00,444.00 L 187.00,451.00 L 194.00,455.00 L 201.00,457.00 L 213.00,457.00 L 221.00,455.00 L 230.00,449.00 L 235.00,442.00 L 227.00,436.00 L 223.00,435.00 L 217.00,441.00 L 212.00,444.00 L 202.00,444.00 L 197.00,441.00 L 190.00,434.00 L 189.00,422.00 L 191.00,418.00 L 201.00,410.00 L 215.00,411.00 L 224.00,418.00 L 232.00,412.00 L 232.00,409.00 L 226.00,403.00 L 217.00,398.00 L 200.00,397.00 Z M 93.00,240.00 L 97.00,240.00 L 99.00,242.00 L 106.00,263.00 L 110.00,271.00 L 113.00,282.00 L 115.00,285.00 L 114.00,290.00 L 77.00,290.00 L 76.00,289.00 L 76.00,283.00 Z M 521.00,240.00 L 525.00,240.00 L 527.00,243.00 L 527.00,246.00 L 533.00,259.00 L 533.00,262.00 L 542.00,285.00 L 541.00,290.00 L 504.00,290.00 L 503.00,289.00 L 503.00,285.00 L 506.00,276.00 L 512.00,263.00 L 518.00,245.00 Z M 326.00,398.00 L 326.00,450.00 L 325.00,455.00 L 338.00,455.00 L 339.00,454.00 L 340.00,399.00 L 339.00,398.00 Z M 435.00,398.00 L 435.00,455.00 L 446.00,455.00 L 447.00,454.00 L 447.00,398.00 Z M 132.00,425.00 L 133.00,424.00 L 138.00,424.00 L 140.00,426.00 L 140.00,432.00 L 139.00,433.00 L 132.00,433.00 L 131.00,432.00 Z"/>
  </g>
</svg>
